<?xml version="1.0" standalone="no"?>
<!DOCTYPE svg PUBLIC "-//W3C//DTD SVG 20010904//EN" "http://www.w3.org/TR/2001/REC-SVG-20010904/DTD/svg10.dtd">
<!-- Created using Krita: https://krita.org -->
<svg xmlns="http://www.w3.org/2000/svg" 
    xmlns:xlink="http://www.w3.org/1999/xlink"
    xmlns:krita="http://krita.org/namespaces/svg/krita"
    xmlns:sodipodi="http://sodipodi.sourceforge.net/DTD/sodipodi-0.dtd"
    width="841.92pt"
    height="595.2pt"
    viewBox="0 0 841.92 595.2">
<defs/>
<path id="shape0" transform="translate(576.475463571862, 35.3911545651178)" fill="none" stroke="#000000" stroke-width="9.600012" stroke-linecap="square" stroke-linejoin="bevel" d="M23.9085 0.000845435C24.4307 -0.173194 29.5023 26.5779 29.7965 29.6968C31.9604 52.6338 -3.93413 92.6844 0.356536 108.417C2.51375 116.327 15.7113 110.293 16.6765 118.337C18.073 129.974 6.44059 141.403 3.55654 152.321C-0.439407 167.448 7.82051 198.064 14.0525 212.865C19.2782 225.276 55.1709 208.182 53.2845 232.705C52.3051 245.437 32.3011 254.935 26.2765 264.833C19.1886 276.477 36.3611 283.358 31.0125 295.553C26.6666 305.462 23.375 325.184 21.2845 329.857C17.906 337.409 8.66283 340.974 6.88454 349.569C6.68208 350.547 6.33109 351.944 6.50054 352.961C6.96999 355.778 12.7672 360.264 13.6045 364.929C15.1544 373.564 7.6062 383.76 13.1565 392.641C17.1911 399.096 29.0144 396.851 35.0445 400.641C49.6519 409.823 58.6996 424.841 68.7725 436.353C71.1594 439.081 82.524 439.792 86.6285 442.689C100.108 452.204 121.723 457.877 137.189 465.217C139.749 466.432 151.553 476.922 148.901 471.617" sodipodi:nodetypes="ccccccccccccccccccc"/><path id="shape1" transform="translate(539.05903768267, 190.250841451612)" fill="none" stroke="#000000" stroke-width="9.600012" stroke-linecap="square" stroke-linejoin="bevel" d="M2.31696 15.8292C-4.62335 8.88884 5.9517 48.7473 8.97296 55.5732C9.24161 56.1801 9.95109 57.4869 10.381 56.9812C15.1996 51.3122 7.15016 29.2698 5.70896 22.8692C4.55795 17.7573 1.88428 2.26609 3.02096 7.38116C4.40737 13.62 5.74405 49.7473 17.933 48.0852C22.3656 47.4807 17.0578 27.4903 16.205 24.4052C15.3867 21.445 12.3712 12.7503 13.581 15.5732C15.0582 19.02 27.5069 53.9234 28.493 53.0132C38.1776 44.0735 12.5322 11.8729 20.941 0.661159C23.7187 -3.04243 22.337 9.81758 23.245 14.3572C24.258 19.4224 28.2171 50.6697 34.317 51.5412C39.1484 52.2314 26.6917 10.5357 28.301 4.50116C30.2471 -2.79695 36.5489 32.6555 37.581 25.1732C39.3722 12.1868 46.8663 3.74564 40.461 14.4212" sodipodi:nodetypes="ccccccccccccccc"/><path id="shape2" transform="translate(560.945070740141, 268.393731297326)" fill="none" stroke="#000000" stroke-width="9.600012" stroke-linecap="square" stroke-linejoin="bevel" d="M0.0789293 7.19027C-0.609285 9.94313 3.39018 15.1799 4.81493 11.2223C9.97108 -3.10037 7.12077 12.1141 16.7829 15.8303C17.3883 16.0631 16.0995 3.70305 15.9509 2.77427C15.5702 0.39488 15.8415 4.96472 23.1189 0.598269C28.008 -2.33516 32.6536 6.73302 31.9509 1.81427" sodipodi:nodetypes="cccccc"/><path id="shape3" transform="translate(506.377126559884, 367.282941903889)" fill="none" stroke="#000000" stroke-width="9.600012" stroke-linecap="square" stroke-linejoin="bevel" d="M2.23087 27.0851C3.65726 25.6587 -1.37656 20.3242 0.374873 21.3251C8.36996 25.8937 16.2377 36.0352 22.9029 42.2531C23.1583 42.4913 30.5402 49.9458 31.0949 48.7811C36.485 37.4619 1.96405 -7.87927 26.0389 28.9411C26.9632 30.3548 38.2274 48.6025 40.6309 46.7331C45.4105 43.0155 31.3838 19.2789 30.2629 17.0371C28.7823 14.076 22.5363 8.14106 25.8469 8.14106C35.028 8.14106 40.8267 49.2501 52.5989 48.2691C54.8034 48.0853 52.4714 43.7945 51.8309 41.6771C47.6298 27.7902 38.1058 16.1954 33.4629 2.44506C33.1992 1.66407 32.2117 -0.172295 33.0149 0.0130581C47.3081 3.31149 48.5955 44.7252 63.0949 48.2051C63.3368 48.2631 54.3596 19.4353 53.2389 16.4611C51.8316 12.7262 47.2901 1.98784 49.9749 4.94106C54.6863 10.1236 60.9286 35.9171 69.1749 35.9171C69.6716 35.9171 64.9297 7.87223 66.4869 10.3811C68.7146 13.9701 79.1758 29.6586 72.4389 17.8691" sodipodi:nodetypes="cccccccccccccccccc"/><path id="shape4" transform="translate(142.336, 26.6909553756842)" fill="none" stroke="#000000" stroke-width="9.600012" stroke-linecap="square" stroke-linejoin="bevel" d="M86.848 1.34104C80.3951 -5.1119 74.1147 13.6923 73.728 16.061C71.5582 29.3512 94.3207 40.5742 99.2 51.709C102.959 60.288 112.584 155.504 107.456 163.837C91.1276 190.371 70.7957 138.352 61.696 133.949C53.4605 129.964 0.326993 122.28 0 121.789" sodipodi:nodetypes="cccccc"/><path id="shape5" transform="translate(159.104, 190.992822644924)" fill="none" stroke="#000000" stroke-width="11.52" stroke-linecap="square" stroke-linejoin="bevel" d="M0 7.98318C7.8292 0.153979 10.3114 -2.70114 21.696 2.99118C54.388 19.3372 30.8138 40.6632 44.608 62.1272C59.0005 81.4826 93.9109 65.8665 90.368 101.295C89.1622 113.353 55.9676 88.0959 45.504 90.6072C23.3889 95.9148 33.9395 120.321 28.928 134.639C26.0022 142.999 6.73623 145.742 6.08 149.679C5.56003 152.799 11.827 158.543 13.312 161.327C32.7307 197.737 74.4539 170.531 82.944 198.831C83.9336 202.13 87.048 201.243 89.664 200.495" sodipodi:nodetypes="cccccccccc"/><path id="shape6" transform="translate(206.460520578436, 321.531549017007)" fill="none" stroke="#000000" stroke-width="9.600012" stroke-linecap="square" stroke-linejoin="bevel" d="M1.09148 1.15645C-2.05683 -3.56601 2.56156 26.4925 3.01148 26.6925C3.90017 27.0874 4.41415 16.4521 4.41948 16.1325C4.75563 -4.03631 3.17756 8.13949 5.69948 19.9085C7.03918 26.1604 8.79863 -5.47043 7.74748 0.836451C6.99739 5.33698 7.99092 31.7128 13.8915 32.6445C14.3324 32.7141 15.0145 32.0351 15.1075 31.7485C17.686 23.7981 16.6177 13.7425 16.1955 5.50845C16.1406 4.43787 16.4701 1.4165 15.8755 2.30845C13.1255 6.43343 16.1856 19.5455 16.9635 23.9405C17.3855 26.3249 17.9555 33.266 18.7555 30.9805C20.6208 25.651 19.2579 17.7823 19.2035 12.2285C19.1734 9.15593 18.5285 0.0646407 19.3955 3.01245C20.3883 6.38795 20.7953 10.1342 21.5075 13.5725C22.6917 19.2891 20.7887 34.3075 25.3475 30.6605C29.5304 27.3141 21.8941 -7.21361 27.0115 19.6525C28.1806 25.7905 28.9119 24.4206 29.1875 19.4605C29.6306 11.485 32.4916 22.4175 34.3075 18.1805" sodipodi:nodetypes="cccccccccccccccccc"/><path id="shape7" transform="translate(162.530221997595, 394.048)" fill="none" stroke="#000000" stroke-width="9.600012" stroke-linecap="square" stroke-linejoin="bevel" d="M80.6698 0C80.6698 45.3373 -1.79296 113.871 0.029778 135.744" sodipodi:nodetypes="cc"/><path id="shape8" transform="translate(245.746466450766, 388.224)" fill="none" stroke="#000000" stroke-width="9.600012" stroke-linecap="square" stroke-linejoin="bevel" d="M8.07753 2.24C8.07753 -3.30904 1.72392 15.9747 1.54953 17.664C1.47143 18.4206 0.5313 33.6 0.0135335 33.6C-0.291885 33.6 4.64574 0 7.37353 0C9.31534 0 7.33371 3.8842 7.24553 5.824C6.90657 13.2812 6.54153 20.7576 6.54153 28.224C6.54153 29.0145 6.03715 31.0663 6.66953 30.592C10.5155 27.7076 12.0391 16.9974 13.2615 12.672C14.027 9.96338 13.3192 2.4897 15.3095 4.48C16.4194 5.58987 6.30643 50.5758 13.0055 31.36C15.25 24.9219 16.7385 6.89101 21.3895 2.24C22.6244 1.00515 13.3785 37.3705 16.9735 39.168C17.285 39.3237 21.743 20.0072 24.3975 9.92C24.8614 8.15729 24.1877 4.14825 25.9335 4.672C27.8671 5.25206 27.7984 57.652 29.6455 33.024" sodipodi:nodetypes="ccccccccccccccc"/><path id="shape9" transform="translate(260.413644433885, 270.807394982875)" fill="none" stroke="#000000" stroke-width="9.600012" stroke-linecap="square" stroke-linejoin="bevel" d="M0.130356 8.55261C0.130356 -1.04469 -0.162944 13.7569 0.130356 16.6166C1.17093 26.7622 2.62448 20.5831 2.81836 14.1206C3.55663 -10.4886 8.24049 19.1044 9.53836 16.7446C10.7131 14.6087 12.3053 -3.86765 13.6984 1.70461C16.436 12.6554 19.4218 42.3328 20.5464 13.5446C20.6635 10.5445 20.7252 9.09203 21.0584 6.18461C23.3989 -14.2418 25.8205 22.6656 30.0824 20.3926C34.9964 17.7718 31.6445 8.52214 34.6904 4.96861C35.3304 4.22194 35.5756 6.73048 35.9064 7.65661C43.1867 28.0416 41.3255 35.6279 48.3224 14.2486C50.8669 6.47348 61.0541 22.2372 60.6744 21.2246" sodipodi:nodetypes="cccccccccccc"/><path id="shape10" transform="translate(205.64037385854, 218.867776306712)" fill="none" stroke="#000000" stroke-width="9.600012" stroke-linecap="square" stroke-linejoin="bevel" d="M0.503626 1.10022C-1.4715 -6.80029 2.65018 30.6524 7.86363 24.3962C10.8543 20.8074 3.41566 -16.7064 6.07163 9.67622C8.58235 34.616 13.1331 35.5295 14.0716 10.1882C14.1119 9.10013 14.176 8.0128 14.1996 6.92422C14.4839 -6.15444 14.1109 10.505 14.4556 14.6682C16.41 38.2715 22.1996 38.1219 22.1996 16.2682C22.1996 12.6959 23.1265 23.3525 23.6076 26.8922C25.3691 39.8513 27.6892 34.5352 28.5996 24.7802C29.6432 13.5989 29.9601 32.2801 35.6396 30.8602" sodipodi:nodetypes="cccccccccc"/><path id="shape11" transform="translate(227.514943538901, 35.8824375503001)" fill="none" stroke="#000000" stroke-width="9.600012" stroke-linecap="square" stroke-linejoin="bevel" d="M0.645056 2.00556C0.645056 -6.82779 -1.40193 16.5328 1.79706 13.9736C11.0503 6.571 3.20495 24.2774 8.32506 31.9576C9.63864 33.9279 9.20849 27.3044 9.66906 24.9816C9.84874 24.0753 15.1106 4.86526 15.6211 5.20556C20.5289 8.47747 10.4847 33.8206 17.4131 36.2456C21.7259 37.7551 22.6075 7.45211 24.9651 6.03756C28.24 4.0726 25.183 13.6744 25.1571 17.4936C25.1033 25.3924 24.3599 33.4199 25.0931 41.3016C25.1262 41.6576 25.1803 42.5971 25.4131 42.3256C29.555 37.4933 24.9086 23.2391 30.5331 19.2216C32.4823 17.8293 30.3098 24.0116 30.0211 26.3896C28.6668 37.542 27.2375 48.6118 26.9491 59.8616C26.9466 59.9555 26.6735 65.5546 28.2931 65.1736C32.1265 64.2716 32.5869 49.1448 32.9011 46.2936C32.9564 45.7909 33.8673 34.8376 33.3491 34.8376C32.5173 34.8376 31.5007 43.993 31.4931 44.0536C30.496 51.9195 29.8175 60.19 30.3411 68.1176C31.5601 86.5771 38.0851 40.4563 38.0851 36.4376C38.0851 34.3257 37.4608 40.6152 37.1891 42.7096C36.064 51.3787 28.9715 88.956 35.3971 95.3816C35.6946 95.6791 37.4451 75.6779 37.4451 59.7336C37.4451 56.625 36.0542 65.803 35.6531 68.8856C34.6203 76.8218 34.481 84.8298 34.4371 92.8216C34.4117 97.4327 31.2601 109.412 34.9491 106.646C39.0137 103.597 32.6163 81.9511 31.3011 78.0376C30.3558 75.225 30.29 67.928 27.9731 69.7816C25.1145 72.0684 30.9986 95.7445 31.6211 99.1576C31.656 99.3489 34.4818 110.072 34.6931 109.782C38.6246 104.376 34.4191 86.009 33.9251 79.7656C33.7157 77.1199 35.9123 71.4542 33.2851 71.8296C30.1938 72.2712 32.3104 78.0019 32.0051 81.1096C30.853 92.8333 30.0925 105 31.2371 116.758C32.855 133.378 36.5703 101.265 38.7251 112.47C39.3643 115.793 40.2804 113.77 40.0691 111.446" sodipodi:nodetypes="ccccccccccccccccccccccccccccccccccc"/><path id="shape12" transform="translate(575.15481916765, 46.464)" fill="none" stroke="#000000" stroke-width="9.600012" stroke-linecap="square" stroke-linejoin="bevel" d="M0.845181 60.48C-0.0635761 61.8431 2.97935 69.7626 4.04518 45.888C4.17463 42.9883 5.59926 34.5878 4.30118 37.184C1.34627 43.0938 -1.11439 62.2417 0.525181 68.8C1.3208 71.9825 2.23278 62.4634 2.95718 59.264C4.52672 52.3319 5.77511 45.3778 6.73318 38.336C7.36567 33.6872 7.10556 19.9331 8.58918 24.384C9.56976 27.3257 7.08738 58.8214 7.82118 58.688C14.9037 57.4003 15.002 17.97 15.3092 12.544C15.4105 10.7544 15.9296 5.44446 15.4372 7.168C14.4678 10.5607 12.6469 46.0691 14.4772 46.592C17.5695 47.4755 17.7351 0 18.7012 0C19.9568 0 19.1905 2.46548 19.3412 3.712C22.2412 27.7033 24.2587 29.6987 26.3172 3.968C27.097 -5.77974 27.5617 23.1572 27.5972 23.104" sodipodi:nodetypes="ccccccccccccccc"/><path id="shape13" transform="translate(477.721196131176, 74.4357334734215)" fill="none" stroke="#000000" stroke-width="9.600012" stroke-linecap="square" stroke-linejoin="bevel" d="M0.102804 1.98027C-0.595405 1.98027 2.36113 -1.12859 5.9908 0.444267C21.7748 7.28399 1.51796 40.2645 0.678804 52.3483C0.0656888 61.1771 5.6708 62.6766 5.6708 70.9083C5.6708 86.3314 7.6613 99.0373 6.4388 112.892C6.23412 115.212 7.04727 113.531 7.5268 112.38" sodipodi:nodetypes="cccccc"/><path id="shape14" transform="translate(536.384, 76.416)" fill="none" stroke="#000000" stroke-width="9.600012" stroke-linecap="square" stroke-linejoin="bevel" d="M2.048 0C1.39826 0.487307 0.665136 0.868903 0 1.344" sodipodi:nodetypes="cc"/><path id="shape15" transform="translate(518.277857123156, 77.4945558477717)" fill="none" stroke="#000000" stroke-width="9.600012" stroke-linecap="square" stroke-linejoin="bevel" d="M18.1061 0.265444C14.1526 -2.01082 1.31808 10.8767 0.122143 18.8894C-1.14841 27.4022 7.90586 27.6508 8.18614 34.3774C9.25397 60.0054 -6.0128 90.1396 6.58614 115.337" sodipodi:nodetypes="cccc"/><path id="shape16" transform="translate(472.066123639813, 317.222916484513)" fill="none" stroke="#000000" stroke-width="9.600012" stroke-linecap="square" stroke-linejoin="bevel" d="M12.6699 20.0571C8.61407 16.8124 11.673 10.2491 11.7739 5.91308C11.7739 5.91025 11.976 -0.447351 12.6059 0.0250835C13.6844 0.83397 11.9862 8.18573 11.8379 8.92108C6.37417 36.002 -2.57316 79.4327 0.701876 110.873C0.867957 112.467 1.65796 113.865 2.94188 114.841C3.35997 115.159 7.18507 116.874 5.11788 116.185" sodipodi:nodetypes="ccccccc"/><path id="shape17" transform="translate(427.133589910821, 319.547202039863)" fill="none" stroke="#000000" stroke-width="9.600012" stroke-linecap="square" stroke-linejoin="bevel" d="M11.9064 0.644798C22.9922 -3.51237 -0.271955 13.5711 0.00241009 19.3328C0.185388 23.1753 8.65256 18.2753 9.09041 19.5888C11.4958 26.805 4.19837 34.431 5.31441 41.7968C6.04415 46.613 13.306 43.8753 13.5064 49.9888C14.0946 67.9272 0.644212 83.8923 7.49041 102.149" sodipodi:nodetypes="cccccc"/><path id="shape18" transform="translate(525.966714561277, 312.160124032426)" fill="none" stroke="#000000" stroke-width="9.600012" stroke-linecap="square" stroke-linejoin="bevel" d="M11.5693 3.93588C11.5693 -10.4315 2.15705 18.9559 1.20129 21.6639C-4.32425 37.3196 10.8977 6.56636 12.7853 6.94388C13.2469 7.03619 5.49434 28.0885 4.91329 29.5359C3.61892 32.76 -1.01009 42.027 1.00929 39.1999C4.83513 33.8437 15.9839 10.2069 15.4093 12.1919C11.3768 26.1224 6.7098 50.936 21.1693 25.6319" sodipodi:nodetypes="ccccccc"/><path id="shape19" transform="translate(549.67883540827, 358.091561011689)" fill="none" stroke="#000000" stroke-width="9.600012" stroke-linecap="square" stroke-linejoin="bevel" d="M2.83316 2.54844C-1.81071 -0.768612 1.53563 -2.68748 0.657165 8.82044C-1.55556 37.8072 2.01235 10.4983 8.46516 6.19644C10.0256 5.15618 12.5382 10.3164 12.8172 11.0604C13.5021 12.8868 14.3712 21.7942 17.2972 21.4284C21.2134 20.9389 26.7439 8.84572 23.9532 11.6364" sodipodi:nodetypes="cccccc"/><path id="shape20" transform="translate(489.301346064864, 435.006378677201)" fill="none" stroke="#000000" stroke-width="9.600012" stroke-linecap="square" stroke-linejoin="bevel" d="M6.05865 0.00162132C6.05865 -0.210201 6.23993 20.3932 7.01865 26.8176C7.05603 27.126 7.06829 27.9458 7.27465 27.7136C10.8568 23.6837 10.2783 5.04941 16.8107 3.64962C17.1051 3.58652 17.3543 24.929 18.6027 27.1376C19.5644 28.8392 21.6337 29.5961 23.4667 28.9296C28.9941 26.9196 28.28 11.4196 33.3867 14.3376C38.9492 17.5162 31.7888 34.9662 36.0107 39.4896C36.5436 40.0606 43.7176 13.5606 46.7627 12.5456C47.6919 12.2359 46.6873 36.0724 49.8987 33.8576C57.9796 28.2846 59.3103 12.6801 60.0107 34.6256C60.0428 35.6326 59.6531 43.0887 61.4827 43.3936C66.3557 44.2058 67.5307 22.1456 74.7947 22.1456C76.0844 22.1456 76.9319 24.3569 77.2267 25.0256C85.4343 43.6506 80.4455 29.1856 90.4747 29.1856C97.5121 29.1856 91.4829 44.9454 86.5067 49.9216C84.1683 52.26 86.5082 43.306 86.3787 40.0016C86.0815 32.4236 84.3788 22.4215 75.1147 21.5696C62.5569 20.4149 47.2388 42.2612 36.9067 38.0176C24.7103 33.0084 34.3419 5.18802 31.9147 6.40162C23.2824 10.7177 28.1886 30.091 22.0587 34.1776C19.4826 35.895 22.4155 27.9935 22.4427 24.8976C22.502 18.1312 15.3337 1.80597 6.05865 9.92162C1.4285 13.973 1.08735 23.0541 0.298654 28.6736C0.22429 29.2035 -0.24714 30.6079 0.170654 30.2736C6.06553 25.5577 5.86979 4.29589 14.4427 21.4416C16.6886 25.9334 19.5361 38.0791 25.2587 39.4256C30.9546 40.7659 34.0919 25.0263 35.3067 21.7616C36.1984 19.365 36.8265 13.0414 38.6347 14.8496C41.4699 17.6849 40.8698 25.3931 42.2827 29.0576C42.8911 30.6359 43.9423 32.9837 45.7387 33.4736" sodipodi:nodetypes="ccccccccccccccccccccccccccccccc"/><path id="shape21" transform="translate(31.5548119018469, 479.210047388811)" fill="none" stroke="#000000" stroke-width="9.600012" stroke-linecap="square" stroke-linejoin="bevel" d="M0.573188 35.99C-2.55914 33.9017 8.01448 34.326 11.3252 32.534C22.4295 26.5234 32.5177 19.4998 44.7972 15.894C75.0924 6.99773 106.305 -0.457986 137.981 0.0219526" sodipodi:nodetypes="cccc"/><path id="shape22" transform="translate(79.6159999999999, 509.248)" fill="none" stroke="#000000" stroke-width="9.600012" stroke-linecap="square" stroke-linejoin="bevel" d="M0 18.24C11.6631 10.9506 28.1011 3.93181 41.6 1.664C42.9152 1.44305 44.2408 1.28255 45.568 1.152C56.5683 0.0700056 70.5992 0.103842 70.08 0" sodipodi:nodetypes="cccc"/><path id="shape23" transform="translate(67.712, 530.56)" fill="none" stroke="#000000" stroke-width="9.600012" stroke-linecap="square" stroke-linejoin="bevel" d="M0 35.456C26.8502 8.60584 220.561 0 256.128 0" sodipodi:nodetypes="cc"/><path id="shape24" transform="translate(308.160000000015, 537.856)" fill="none" stroke="#000000" stroke-width="9.600012" stroke-linecap="square" stroke-linejoin="bevel" d="M0 21.184C37.954 6.0024 112.729 1.91113 153.088 0.832C166.93 0.461885 187.97 4.94324 201.152 0" sodipodi:nodetypes="ccc"/><path id="shape25" transform="translate(665.344, 532.16)" fill="none" stroke="#000000" stroke-width="9.600012" stroke-linecap="square" stroke-linejoin="bevel" d="M0 0C0.89431 0.447155 2.23961 0.784049 0.32 1.024" sodipodi:nodetypes="cc"/><path id="shape26" transform="translate(631.36, 529.013017521685)" fill="none" stroke="#000000" stroke-width="9.600012" stroke-linecap="square" stroke-linejoin="bevel" d="M0 9.61098C7.08281 -4.55465 177.945 -1.48727 184.704 8.65098" sodipodi:nodetypes="cc"/><path id="shape27" transform="translate(750.715423691343, 505.728)" fill="none" stroke="#000000" stroke-width="9.600012" stroke-linecap="square" stroke-linejoin="bevel" d="M0.260576 0.128C-0.130348 0.128 -0.076378 0.154985 0.388576 0" sodipodi:nodetypes="cc"/><path id="shape28" transform="translate(746.368, 504.512)" fill="none" stroke="#000000" stroke-width="9.600012" stroke-linecap="square" stroke-linejoin="bevel" d="M0 1.28C0.909802 -1.4494 29.504 1.94298 32.448 1.792C37.4479 1.5356 52.3161 0.708016 47.36 0" sodipodi:nodetypes="ccc"/><path id="shape29" transform="translate(713.296189330902, 469.987066674423)" fill="none" stroke="#000000" stroke-width="9.600012" stroke-linecap="square" stroke-linejoin="bevel" d="M0.943811 4.31693C-0.603744 3.93004 -0.0861616 3.45443 1.32781 3.10093C13.2946 0.109242 42.9374 -2.17429 54.1278 3.42093" sodipodi:nodetypes="ccc"/><path id="shape30" transform="translate(649.856, 445.126102402961)" fill="none" stroke="#000000" stroke-width="9.600012" stroke-linecap="square" stroke-linejoin="bevel" d="M0 7.3539C10.532 3.84322 40.591 -5.11111 49.6 3.8979" sodipodi:nodetypes="cc"/><path id="shape31" transform="translate(215.795495580265, 457.983999999985)" fill="none" stroke="#000000" stroke-width="9.600012" stroke-linecap="square" stroke-linejoin="bevel" d="M1.2285 0C1.00779 0.441435 -0.131276 1.96734 0.0125044 1.536" sodipodi:nodetypes="cc"/><path id="shape32" transform="translate(215.244380009444, 444.725951498603)" fill="none" stroke="#000000" stroke-width="9.600012" stroke-linecap="square" stroke-linejoin="bevel" d="M0.56362 14.794C-2.34108 18.2434 6.99535 -1.41957 5.61962 2.57005C3.59864 8.43088 2.04775 14.4662 0.56362 20.49C-1.82249 30.1749 15.9132 -14.6399 7.28362 6.60205C1.49666 20.8469 -2.0143 33.0891 7.28362 11.146C14.8477 -6.70514 13.8394 -1.02379 7.79562 13.514C6.19818 17.3565 4.0752 21.1544 7.79562 15.69C8.72076 14.3312 14.5734 5.06157 13.3636 8.97005C9.87044 20.2557 8.74429 28.832 15.3476 12.554C16.1159 10.6602 23.261 -2.46389 22.3236 1.09805C20.2438 9.00144 16.3748 16.6948 15.0276 24.778C14.8639 25.7606 16.5057 23.4189 17.0756 22.602C23.5145 13.373 26.8499 18.2855 26.9316 18.122" sodipodi:nodetypes="ccccccccccccc"/><path id="shape33" transform="translate(137.472062982554, 20.1599981975557)" fill="none" stroke="#000000" stroke-width="17.759988" stroke-linecap="square" stroke-linejoin="bevel" d="M93.936 0C94.3896 0.680362 90.2278 4.15743 89.808 4.608C81.5827 13.4352 74.6768 20.1297 80.112 32.208C83.4285 39.578 140.335 162.555 101.184 164.928C85.454 165.881 83.0249 138.458 68.304 133.44C45.7818 125.762 21.3236 132.102 0 121.44" sodipodi:nodetypes="cccccc"/><path id="shape34" transform="translate(151.968061686511, 192.171865166081)" fill="none" stroke="#000000" stroke-width="17.759988" stroke-linecap="square" stroke-linejoin="bevel" d="M0 13.2201C1.42189 6.11066 8.68226 1.40608 15.696 0.404118C47.5186 -4.14197 39.7163 30.7555 48.144 50.4201C49.3871 53.3206 51.3289 56.1196 53.952 57.9081C67.538 67.1713 108.15 68.9117 105.456 94.0521C103.504 112.269 60.8062 83.7345 52.176 85.8921C51.2595 86.1212 50.4259 86.5389 49.632 87.0441C28.5264 100.475 45.9719 109.814 40.416 123.956C37.0844 132.437 15.861 143.295 16.272 150.692C17.3242 169.632 86.2139 165.907 92.112 213.092" sodipodi:nodetypes="cccccccccc"/><path id="shape35" transform="translate(173.682354312031, 394.892834160538)" fill="none" stroke="#000000" stroke-width="17.759988" stroke-linecap="square" stroke-linejoin="bevel" d="M80.4617 0.371162C74.5776 0.371162 72.4726 -1.76478 73.1017 4.21116C76.558 37.0467 29.6481 65.8658 21.0697 98.0352C18.7644 106.68 -1.4034 140.796 0.0776523 138.163" sodipodi:nodetypes="cccc"/><path id="shape36" transform="translate(575.154037798826, 23.1940072854557)" fill="none" stroke="#000000" stroke-width="17.759988" stroke-linecap="square" stroke-linejoin="bevel" d="M22.094 0.293992C27.3697 -1.02493 26.8089 2.23753 29.774 7.20599C62.6262 62.2557 0.0139649 66.0382 0.0139649 108.966C0.0139649 111.18 -0.176077 113.706 0.845965 115.75C1.61272 117.283 3.56649 117.979 5.06996 118.502C8.83606 119.812 21.5108 113.999 23.95 117.414C31.5893 128.109 7.57418 152.654 4.94196 162.598C3.57858 167.749 12.7734 224.001 15.502 230.822C15.7041 231.327 15.9057 232.577 16.334 232.934C20.7429 236.608 51.1296 207.244 52.814 235.878C53.7871 252.421 39.7043 255.965 32.718 267.942C28.1955 275.695 37.297 288.807 35.47 297.638C31.0076 319.206 14.7838 338.774 13.454 361.382C13.0647 367.999 25.5766 365.668 25.102 369.702C22.938 388.096 4.41202 392.619 18.574 413.862C21.6816 418.523 35.9982 405.833 40.974 409.254C52.0497 416.869 55.6779 436.101 66.446 445.414C79.7146 456.89 92.0332 463.877 106.958 472.998C112.53 476.403 115.844 479.4 122.446 480.678C123.145 480.813 130.908 483.435 128.334 482.406" sodipodi:nodetypes="cccccccccccccccccccc"/><path id="shape37" transform="translate(265.016178027554, 154.303998467129)" fill="none" stroke="#000000" stroke-width="15.599988" stroke-linecap="square" stroke-linejoin="bevel" d="M30.4078 0C2.98646 6.85534 23.0739 50.1239 11.2718 73.728C7.03998 82.1917 -0.272443 93.2305 0.0078277 103.04C0.149667 108.004 -0.100073 122.101 2.31183 117.76" sodipodi:nodetypes="cccc"/><path id="shape38" transform="translate(303.143859055218, 206.015996492019)" fill="none" stroke="#000000" stroke-width="15.599988" stroke-linecap="square" stroke-linejoin="bevel" d="M9.24015 1.4614e-06C9.24692 -0.00507885 4.33413 13.237 3.54415 16.64C1.27441 26.4173 -1.01138 46.0945 0.472146 55.552C1.32862 61.0121 3.05063 77.2921 3.73615 71.808" sodipodi:nodetypes="cccc"/><path id="shape39" transform="translate(257.255906199156, 424.441880656246)" fill="none" stroke="#000000" stroke-width="15.599988" stroke-linecap="square" stroke-linejoin="bevel" d="M0.0240996 2.05412C0.7331 1.34511 4.74104 -0.365803 5.2081 0.0701151C28.5756 21.8798 -15.6137 61.9303 6.2961 80.7101" sodipodi:nodetypes="ccc"/><path id="shape40" transform="translate(291.520005467729, 406.577045073363)" fill="none" stroke="#000000" stroke-width="15.599988" stroke-linecap="square" stroke-linejoin="bevel" d="M0 0.590951C21.81 -6.67906 7.24798 55.3755 6.912 63.439C6.47206 73.9976 18.1789 81.1747 16 91.3429" sodipodi:nodetypes="ccc"/><path id="shape41" transform="translate(421.624483957637, 316.278075059425)" fill="none" stroke="#000000" stroke-width="15.599988" stroke-linecap="square" stroke-linejoin="bevel" d="M27.9115 0.585922C27.9115 -3.61948 -3.85969 16.0467 0.39152 20.2979C1.01977 20.9262 3.27889 20.7383 4.03952 20.6819C46.9013 17.507 -12.9814 47.2178 10.1195 49.4179C16.5285 50.0283 27.4857 47.9314 21.1915 58.1219C15.8842 66.7146 8.61318 82.8274 8.26352 92.6179C8.04984 98.6009 9.10264 115.071 12.4235 110.09" sodipodi:nodetypes="ccccccc"/><path id="shape42" transform="translate(472.127862387616, 307.571244228846)" fill="none" stroke="#000000" stroke-width="15.599988" stroke-linecap="square" stroke-linejoin="bevel" d="M17.2161 0.0127527C17.6099 -0.249727 17.9054 3.62118 17.9201 4.10875C18.1048 10.2036 19.2293 18.8021 17.0881 24.4608C15.1538 29.5729 11.1826 32.1102 8.12814 36.4928C6.52251 38.7965 1.9628 100.557 3.07214 105.549C3.60901 107.965 -2.23367 140.346 0.960141 130.765" sodipodi:nodetypes="cccccc"/><path id="shape43" transform="translate(472.128003673551, 69.237721563156)" fill="none" stroke="#000000" stroke-width="15.599988" stroke-linecap="square" stroke-linejoin="bevel" d="M0 5.32228C0.800776 2.91995 4.46315 0.248763 6.848 0.0102777C8.37972 -0.142895 9.18602 1.44922 9.792 2.57028C19.85 21.1776 4.71169 28.7149 2.112 44.7463C0.601685 54.0599 4.95767 60.7823 5.696 69.6423C6.89513 84.0319 16.7644 94.9058 13.248 110.026C12.8104 111.908 8.28831 122.901 8.832 123.082" sodipodi:nodetypes="ccccccc"/><path id="shape44" transform="translate(519.608242947335, 54.1208937782915)" fill="none" stroke="#000000" stroke-width="15.599988" stroke-linecap="square" stroke-linejoin="bevel" d="M24.9678 0.535106C21.8604 -2.57226 15.1106 8.77904 13.7038 10.8391C13.0241 11.8344 12.5574 12.401 11.9758 13.4631C7.84996 20.9972 17.7917 23.849 16.1358 27.5431C12.3471 35.9946 0.467567 39.7397 0.00776025 50.7751C-0.327964 58.8325 10.3374 64.4593 11.0158 72.5991C11.9162 83.4044 1.47976 92.5861 1.47976 102.743C1.47976 112.369 5.28046 122.719 4.16776 131.991C3.88755 134.326 3.9498 145.241 5.25576 138.711" sodipodi:nodetypes="ccccccccc"/><path id="shape45" transform="translate(554.779073980683, 215.553522038485)" fill="none" stroke="#000000" stroke-width="15.599988" stroke-linecap="square" stroke-linejoin="bevel" d="M1.18893 0.190476C1.18893 -1.31866 2.98209 6.21177 6.05293 20.2225C8.594 31.8161 7.76185 18.8558 4.06893 17.2145C-1.71366 14.6444 -0.657601 25.809 3.04493 28.0305C5.21905 29.3349 7.26284 21.4448 8.99693 23.2945C9.54482 23.8789 13.2209 28.7378 13.2209 28.4145" sodipodi:nodetypes="cccccc"/><path id="shape46" transform="translate(564.651398649004, 276.671997251513)" fill="none" stroke="#000000" stroke-width="15.599988" stroke-linecap="square" stroke-linejoin="bevel" d="M2.0686 0C-7.45782 4.76321 18.9205 3.17176 20.5006 6.016" sodipodi:nodetypes="cc"/><path id="shape47" transform="translate(216.713470067077, 312.073784205418)" fill="none" stroke="#000000" stroke-width="15.599988" stroke-linecap="square" stroke-linejoin="bevel" d="M5.62254 2.74221C3.59043 -5.38622 2.77651 6.903 9.01454 9.39821C10.1419 9.84916 -4.37259 1.15636 1.33454 13.0462C3.0895 16.7024 10.8506 19.2272 14.5825 18.2942C18.7959 17.2409 28.7559 24.8463 27.3825 20.7262" sodipodi:nodetypes="ccccc"/><path id="shape48" transform="translate(249.685567665233, 38.4172650833345)" fill="none" stroke="#000000" stroke-width="15.599988" stroke-linecap="square" stroke-linejoin="bevel" d="M8.81044 0.494735C8.81044 -1.88238 7.17666 4.96149 6.25044 7.15073C5.64724 8.57647 -2.60297 28.8681 1.77044 24.4947C5.74367 20.5215 8.67555 15.3049 12.2024 10.9267C14.8362 7.65727 -5.48305 39.2088 1.45044 42.9907C5.4363 45.1648 17.4345 20.5367 14.8904 32.3667C14.0374 36.3333 12.9345 40.197 11.7544 44.0787C10.3629 48.656 8.66961 53.1425 7.46644 57.7747C4.48234 69.2635 25.2383 31.4721 30.0584 31.1507C35.2801 30.8026 25.9013 40.7585 23.6584 45.4867C17.0978 59.3173 4.44884 91.4264 23.3384 61.7427C25.4778 58.3809 27.9316 55.3198 30.3144 52.1427C32.2097 49.6157 27.5911 57.8437 26.2824 60.7187C25.0192 63.4941 11.5216 97.416 12.4584 97.3267C17.5419 96.8426 27.8083 76.9197 31.1464 72.8787C33.7411 69.7379 38.7408 60.0632 39.5944 64.0467C41.2047 71.5614 27.7087 88.5872 24.2984 95.0227C22.9925 97.4872 18.5056 102.985 21.2904 102.831C30.3974 102.325 35.3333 80.3488 42.4104 75.6307C45.1429 73.8091 38.7495 81.0862 37.0344 83.8867C34.1579 88.5839 28.0041 104.286 22.1224 105.967C19.0118 106.855 25.1564 100.252 26.6664 97.3907C30.5745 89.986 35.8495 81.6261 36.5224 73.0707C36.5927 72.1775 36.6139 71.2741 36.5224 70.3827C36.2174 67.4091 5.09487 42.9308 16.3624 37.1027C18.0861 36.2112 20.3753 35.7384 22.2504 35.3107C41.4702 30.9273 20.0234 32.5436 16.1064 35.4387C11.6334 38.7449 13.2657 58.942 21.4824 47.7907" sodipodi:nodetypes="cccccccccccccccccccccccccccc"/><path id="shape49" transform="translate(218.176006196335, 227.229784377333)" fill="none" stroke="#000000" stroke-width="15.599988" stroke-linecap="square" stroke-linejoin="bevel" d="M0 0.290213C0 -2.34939 8.25805 13.8466 8.832 15.3302C18.141 39.393 19.2496 18.391 24.704 19.1702C26.2808 19.3955 26.769 24.5241 26.88 25.6342" sodipodi:nodetypes="cccc"/><path id="shape50" transform="translate(578.368002618152, 30.1439997005465)" fill="none" stroke="#000000" stroke-width="15.599988" stroke-linecap="square" stroke-linejoin="bevel" d="M0 0C1.00053 3.00159 1.81294 5.17899 5.44 6.016" sodipodi:nodetypes="cc"/><path id="shape51" transform="translate(568.482259000698, 28.1962912072484)" fill="none" stroke="#000000" stroke-width="15.599988" stroke-linecap="square" stroke-linejoin="bevel" d="M18.7817 7.89971C18.7817 -14.7051 -0.866328 36.1806 0.0297437 36.3797C4.50969 37.3753 9.57325 23.8822 10.8457 21.1477C27.4372 -14.5063 2.75544 35.363 17.1177 19.1637C19.2514 16.7571 37.7455 -0.79031 37.9177 0.0277085C40.6275 12.8989 6.55639 31.5849 15.9017 45.0837C19.5855 50.4046 26.0217 40.5374 27.9977 38.3637C38.9103 26.3599 39.7785 63.4498 33.6937 42.5877C29.6374 28.6803 -10.6622 76.2569 13.9817 43.8677C14.4763 43.2177 14.7893 41.8136 15.5817 42.0117C17.497 42.4905 11.5519 40.7047 9.69374 41.3717C7.726 42.0781 7.01027 44.4301 6.42974 46.1717C5.6979 48.3672 5.20968 50.2585 4.95774 52.5717C4.43841 57.3401 14.8255 60.6951 12.4457 64.8597C9.70972 69.6478 3.91368 84.7876 6.49374 89.9477C6.91503 90.7903 9.59368 96.9877 7.13374 96.9877" sodipodi:nodetypes="cccccccccccccccc"/><path id="shape52" transform="translate(522.689954852725, 197.595805804837)" fill="none" stroke="#000000" stroke-width="15.599988" stroke-linecap="square" stroke-linejoin="bevel" d="M41.79 11.0442C55.4228 -12.813 35.4748 6.85246 35.966 24.2922C36.5323 44.3927 54.5377 12.8443 56.638 14.3082C58.6559 15.7146 57.8958 20.2609 57.662 21.9882C56.6013 29.8257 53.7524 42.4003 46.526 47.0762C40.6441 50.8821 35.2441 37.7578 35.966 40.1642C39.2169 51.0004 43.0221 62.8893 51.198 43.8122C53.5576 38.3067 52.0015 49.098 51.838 50.0202C49.7747 61.6635 54.7642 52.4291 57.022 51.3002C57.4727 51.0748 57.9602 47.4241 58.046 47.0122C60.8102 33.7443 51.0738 46.8604 46.718 49.7642C38.6901 55.1162 23.9182 28.5953 19.454 26.0842C16.9526 24.6771 19.675 31.3678 19.07 31.3322C11.9934 30.9159 4.96746 24.7854 3.77405 27.1722C3.40118 27.9179 -0.771004 40.0918 0.126048 39.9722C3.17629 39.5655 4.36327 31.6145 6.14205 29.4122C9.11155 25.7357 3.56561 33.7101 6.78205 28.1962" sodipodi:nodetypes="ccccccccccccccccc"/><path id="shape53" transform="translate(530.270713278622, 305.413830827017)" fill="none" stroke="#000000" stroke-width="15.599988" stroke-linecap="square" stroke-linejoin="bevel" d="M0.28929 16.0582C-2.01199 12.6062 10.4143 -15.8579 2.52929 12.3462C-6.15385 43.4051 11.2342 6.85805 19.0413 5.88217C19.0673 5.87892 1.99277 37.6847 20.7053 22.7782C22.9102 21.0217 24.9556 19.0858 27.1693 17.3382" sodipodi:nodetypes="ccccc"/><path id="shape54" transform="translate(557.184002828596, 349.578506582107)" fill="none" stroke="#000000" stroke-width="15.599988" stroke-linecap="square" stroke-linejoin="bevel" d="M0 25.2695C3.75889 -4.80163 0.387912 51.5463 2.24 50.8055C9.67186 47.8327 11.2167 24.0565 13.44 17.2695C14.1036 15.2437 14.1623 10.199 15.936 11.3815C18.7498 13.2573 6.2957 50.5865 10.176 50.1015C18.4332 49.0693 22.8425 8.34347 25.024 1.65349C25.2015 1.10926 25.6414 -0.434773 25.792 0.11749C27.3802 5.94096 20.3931 41.674 24.832 43.8935C27.4678 45.2114 35.5123 7.93827 35.072 9.58949C30.3364 27.348 22.144 50.1153 22.144 68.4695C22.144 69.9282 30.5089 46.8162 19.456 46.5175C12.6995 46.3349 6.56748 62.6024 11.008 66.5495C12.0974 67.5178 15.9373 45.6829 17.088 43.3815C17.7759 42.0056 13.436 71.7718 18.624 70.1335C20.9463 69.4001 28.3079 59.6326 24.96 58.2935C12.79 53.4255 11.1269 56.849 22.464 70.4535C23.1991 71.3356 30.9822 75.1661 30.72 75.2535" sodipodi:nodetypes="ccccccccccccccccc"/><path id="shape55" transform="translate(506.002104769382, 419.391995833718)" fill="none" stroke="#000000" stroke-width="15.599988" stroke-linecap="square" stroke-linejoin="bevel" d="M4.0779 0C-7.3968 0 8.29424 52.4549 15.0219 31.808C25.0237 1.11293 9.62057 50.9232 23.0219 57.152C25.2891 58.2057 28.2854 58.2265 30.5739 57.216C38.6654 53.6431 37.1152 43.0941 42.3499 39.168C47.0941 35.6098 45.1322 55.6449 50.9899 54.72C70.5251 51.6355 71.3258 71.9752 75.6299 65.28C80.5164 57.6788 77.0992 56.0073 82.2219 60.736C85.0536 63.3499 88.8204 57.6727 91.1179 60.736" sodipodi:nodetypes="ccccccccc"/><path id="shape56" transform="translate(622.912002175647, 463.487995395664)" fill="none" stroke="#000000" stroke-width="15.599988" stroke-linecap="square" stroke-linejoin="bevel" d="M0 0C4.43854 13.3156 41.3608 46.8146 47.168 41.92C49.7653 39.7308 56.6895 32.2574 54.08 34.432" sodipodi:nodetypes="ccc"/><path id="shape57" transform="translate(276.800005613959, 53.1839994716648)" fill="none" stroke="#000000" stroke-width="15.599988" stroke-linecap="square" stroke-linejoin="bevel" d="M9.6 0C9.6 6.11342 0 9.5114 0 14.464C0 20.9602 19.0718 -1.27934 16.96 4.864C15.6034 8.81043 13.7761 12.5688 11.968 16.32C-0.0166987 41.1838 18.6935 23.7212 22.976 28.992C32.4232 40.6194 19.6637 49.4158 23.616 61.632C25.2171 66.5809 31.6652 59.8348 31.36 57.088C31.3155 56.6874 23.3439 66.6133 22.912 67.264C22.0496 68.5633 14.4744 81.2438 22.592 76.096C24.1231 75.125 27.8212 69.7557 27.712 70.208C25.9861 77.358 18.7465 83.4124 22.464 84.032C23.0478 84.1293 20.4635 91.8746 20.8 92.8C21.0278 93.4263 27.9931 83.3468 28.608 82.24C30.2721 79.2446 19.7753 99.0984 28.544 88.576C29.7666 87.1089 32.9618 82.1468 31.616 80.128" sodipodi:nodetypes="ccccccccccccccc"/><path id="shape58" transform="translate(251.764741842012, 63.4992687761562)" fill="none" stroke="#000000" stroke-width="15.599988" stroke-linecap="square" stroke-linejoin="bevel" d="M8.90726 0.436731C8.90726 -3.40923 -7.97743 19.281 4.74726 24.0527C8.93688 25.6238 20.8485 9.8723 29.2593 11.7007C32.5058 12.4065 20.9835 22.4331 22.2193 22.4527C26.5933 22.5222 47.2936 19.3203 37.5793 28.3407" sodipodi:nodetypes="ccccc"/>
</svg>
